<svg xmlns="http://www.w3.org/2000/svg" xmlns:xlink="http://www.w3.org/1999/xlink" version="1.1" viewBox="0 0 96 120" enable-background="new 0 0 96 96" xml:space="preserve" fill="#A63446">
  <path d="M92.124,36c-0.024,0-0.052,0-0.08,0H3.876c-0.868,0-1.636-0.56-1.904-1.38c-0.268-0.828,0.024-1.728,0.728-2.24l44.084-32  c0.704-0.504,1.648-0.504,2.353,0L92.92,32.16c0.708,0.312,1.204,1.016,1.204,1.836C94.124,35.104,93.232,36,92.124,36z" />
  <path d="M92.04,96h-88c-1.104,0-2-0.9-2-2v-8c0-1.1,0.896-2,2-2h88c1.104,0,2,0.9,2,2v8C94.04,95.1,93.145,96,92.04,96z" />
  <path d="M20.04,80h-12c-1.104,0-2-0.9-2-2V42c0-1.104,0.896-2,2-2h12c1.104,0,2,0.896,2,2v36C22.04,79.1,21.144,80,20.04,80z" />
  <path d="M88.04,80h-12c-1.101,0-2-0.9-2-2V42c0-1.104,0.899-2,2-2h12c1.104,0,2,0.896,2,2v36C90.04,79.1,89.145,80,88.04,80z" />
  <path d="M37.948,73.256c3.792,0,7.292,0.805,10.008,2.288c2.728-1.483,6.252-2.288,10.084-2.288c2.952,0,5.739,0.477,8,1.32v-29.56  c-1.672-0.876-4.5-1.416-7.588-1.416c-3.496,0-6.664,0.692-8.412,1.792V64c0,1.104-0.899,2-2,2c-1.1,0-2-0.896-2-2V45.392  c-1.752-1.1-4.916-1.792-8.416-1.792c-3.084,0-5.92,0.544-7.584,1.416v29.56C32.284,73.729,35.04,73.256,37.948,73.256z" />
</svg>
